<mxfile host="app.diagrams.net" agent="Mozilla/5.0 (Windows NT 10.0; Win64; x64) AppleWebKit/537.36 (KHTML, like Gecko) Chrome/127.0.0.0 Safari/537.36 Edg/127.0.0.0" version="24.7.7">
  <diagram name="Page-1" id="kCVb9j6UZoe4cdGpEQq8">
    <mxGraphModel dx="2111" dy="640" grid="1" gridSize="10" guides="1" tooltips="1" connect="1" arrows="1" fold="1" page="1" pageScale="1" pageWidth="850" pageHeight="1100" math="0" shadow="0">
      <root>
        <mxCell id="0" />
        <mxCell id="1" parent="0" />
        <mxCell id="AH8o_xnRMGMlBw7-ab-L-1" value="Sand" style="rounded=0;whiteSpace=wrap;html=1;" vertex="1" parent="1">
          <mxGeometry x="-560" y="240" width="80" height="40" as="geometry" />
        </mxCell>
        <mxCell id="AH8o_xnRMGMlBw7-ab-L-2" value="Silicon" style="rounded=0;whiteSpace=wrap;html=1;" vertex="1" parent="1">
          <mxGeometry x="-320" y="160" width="80" height="40" as="geometry" />
        </mxCell>
        <mxCell id="AH8o_xnRMGMlBw7-ab-L-4" value="Water" style="shape=hexagon;perimeter=hexagonPerimeter2;whiteSpace=wrap;html=1;fixedSize=1;" vertex="1" parent="1">
          <mxGeometry x="-320" y="240" width="80" height="40" as="geometry" />
        </mxCell>
        <mxCell id="AH8o_xnRMGMlBw7-ab-L-6" value="Iron" style="rounded=0;whiteSpace=wrap;html=1;" vertex="1" parent="1">
          <mxGeometry x="-560" y="400" width="80" height="40" as="geometry" />
        </mxCell>
        <mxCell id="AH8o_xnRMGMlBw7-ab-L-7" value="Cobalt" style="rounded=0;whiteSpace=wrap;html=1;" vertex="1" parent="1">
          <mxGeometry x="-560" y="320" width="80" height="40" as="geometry" />
        </mxCell>
        <mxCell id="AH8o_xnRMGMlBw7-ab-L-16" value="Sand Cooker" style="text;html=1;align=center;verticalAlign=middle;whiteSpace=wrap;rounded=0;fillColor=default;strokeColor=default;" vertex="1" parent="1">
          <mxGeometry x="-440" y="165" width="80" height="30" as="geometry" />
        </mxCell>
        <mxCell id="AH8o_xnRMGMlBw7-ab-L-17" value="Light Drill" style="rhombus;whiteSpace=wrap;html=1;" vertex="1" parent="1">
          <mxGeometry x="-660" y="300" width="80" height="80" as="geometry" />
        </mxCell>
        <mxCell id="AH8o_xnRMGMlBw7-ab-L-18" value="" style="endArrow=classic;html=1;rounded=0;exitX=0.5;exitY=0;exitDx=0;exitDy=0;entryX=0;entryY=0.5;entryDx=0;entryDy=0;" edge="1" parent="1" source="AH8o_xnRMGMlBw7-ab-L-17" target="AH8o_xnRMGMlBw7-ab-L-1">
          <mxGeometry width="50" height="50" relative="1" as="geometry">
            <mxPoint x="-570" y="280" as="sourcePoint" />
            <mxPoint x="-520" y="230" as="targetPoint" />
            <Array as="points">
              <mxPoint x="-620" y="260" />
            </Array>
          </mxGeometry>
        </mxCell>
        <mxCell id="AH8o_xnRMGMlBw7-ab-L-20" value="Vent Energiser" style="rhombus;whiteSpace=wrap;html=1;" vertex="1" parent="1">
          <mxGeometry x="-680" y="140" width="80" height="80" as="geometry" />
        </mxCell>
        <mxCell id="AH8o_xnRMGMlBw7-ab-L-22" value="Power" style="ellipse;whiteSpace=wrap;html=1;" vertex="1" parent="1">
          <mxGeometry x="-560" y="160" width="80" height="40" as="geometry" />
        </mxCell>
        <mxCell id="AH8o_xnRMGMlBw7-ab-L-23" value="" style="endArrow=classic;html=1;rounded=0;exitX=1;exitY=0.5;exitDx=0;exitDy=0;entryX=0;entryY=0.5;entryDx=0;entryDy=0;" edge="1" parent="1" source="AH8o_xnRMGMlBw7-ab-L-20" target="AH8o_xnRMGMlBw7-ab-L-22">
          <mxGeometry width="50" height="50" relative="1" as="geometry">
            <mxPoint x="-430" y="210" as="sourcePoint" />
            <mxPoint x="-380" y="160" as="targetPoint" />
          </mxGeometry>
        </mxCell>
        <mxCell id="AH8o_xnRMGMlBw7-ab-L-32" value="" style="endArrow=classic;html=1;rounded=0;fontFamily=Helvetica;fontSize=12;fontColor=default;exitX=0.5;exitY=1;exitDx=0;exitDy=0;entryX=0;entryY=0.5;entryDx=0;entryDy=0;" edge="1" parent="1" source="AH8o_xnRMGMlBw7-ab-L-17" target="AH8o_xnRMGMlBw7-ab-L-6">
          <mxGeometry width="50" height="50" relative="1" as="geometry">
            <mxPoint x="-570" y="540" as="sourcePoint" />
            <mxPoint x="-520" y="490" as="targetPoint" />
            <Array as="points">
              <mxPoint x="-620" y="420" />
            </Array>
          </mxGeometry>
        </mxCell>
        <mxCell id="AH8o_xnRMGMlBw7-ab-L-34" value="Fusion Engine" style="text;html=1;align=center;verticalAlign=middle;whiteSpace=wrap;rounded=0;fontFamily=Helvetica;fontSize=12;fontColor=default;fillColor=default;strokeColor=default;" vertex="1" parent="1">
          <mxGeometry x="-300" y="405" width="80" height="30" as="geometry" />
        </mxCell>
        <mxCell id="AH8o_xnRMGMlBw7-ab-L-40" value="" style="endArrow=none;html=1;rounded=0;fontFamily=Helvetica;fontSize=12;fontColor=default;exitX=1;exitY=0.5;exitDx=0;exitDy=0;entryX=0;entryY=0.5;entryDx=0;entryDy=0;" edge="1" parent="1" source="AH8o_xnRMGMlBw7-ab-L-7" target="AH8o_xnRMGMlBw7-ab-L-34">
          <mxGeometry width="50" height="50" relative="1" as="geometry">
            <mxPoint x="-480" y="470" as="sourcePoint" />
            <mxPoint x="-440" y="470" as="targetPoint" />
            <Array as="points">
              <mxPoint x="-370" y="340" />
              <mxPoint x="-370" y="420" />
            </Array>
          </mxGeometry>
        </mxCell>
        <mxCell id="AH8o_xnRMGMlBw7-ab-L-41" value="" style="endArrow=classic;html=1;rounded=0;fontFamily=Helvetica;fontSize=12;fontColor=default;exitX=1;exitY=0.5;exitDx=0;exitDy=0;entryX=0;entryY=0.5;entryDx=0;entryDy=0;" edge="1" parent="1" source="AH8o_xnRMGMlBw7-ab-L-34" target="AH8o_xnRMGMlBw7-ab-L-8">
          <mxGeometry width="50" height="50" relative="1" as="geometry">
            <mxPoint x="-350" y="520" as="sourcePoint" />
            <mxPoint x="-300" y="470" as="targetPoint" />
            <Array as="points">
              <mxPoint x="-200" y="420" />
              <mxPoint x="-200" y="340" />
            </Array>
          </mxGeometry>
        </mxCell>
        <mxCell id="AH8o_xnRMGMlBw7-ab-L-47" value="" style="endArrow=classic;html=1;rounded=0;fontFamily=Helvetica;fontSize=12;fontColor=default;exitX=1;exitY=0.5;exitDx=0;exitDy=0;" edge="1" parent="1" source="AH8o_xnRMGMlBw7-ab-L-16" target="AH8o_xnRMGMlBw7-ab-L-2">
          <mxGeometry width="50" height="50" relative="1" as="geometry">
            <mxPoint x="-400" y="285" as="sourcePoint" />
            <mxPoint x="-350" y="235" as="targetPoint" />
          </mxGeometry>
        </mxCell>
        <mxCell id="AH8o_xnRMGMlBw7-ab-L-50" value="" style="endArrow=none;html=1;rounded=0;fontFamily=Helvetica;fontSize=12;fontColor=default;exitX=1;exitY=0.5;exitDx=0;exitDy=0;entryX=0;entryY=0.5;entryDx=0;entryDy=0;" edge="1" parent="1" source="AH8o_xnRMGMlBw7-ab-L-22" target="AH8o_xnRMGMlBw7-ab-L-16">
          <mxGeometry width="50" height="50" relative="1" as="geometry">
            <mxPoint x="-480" y="260" as="sourcePoint" />
            <mxPoint x="-430" y="210" as="targetPoint" />
          </mxGeometry>
        </mxCell>
        <mxCell id="AH8o_xnRMGMlBw7-ab-L-51" value="" style="endArrow=none;html=1;rounded=0;fontFamily=Helvetica;fontSize=12;fontColor=default;exitX=1;exitY=0.5;exitDx=0;exitDy=0;entryX=0;entryY=0.5;entryDx=0;entryDy=0;" edge="1" parent="1" source="AH8o_xnRMGMlBw7-ab-L-1" target="AH8o_xnRMGMlBw7-ab-L-16">
          <mxGeometry width="50" height="50" relative="1" as="geometry">
            <mxPoint x="-540" y="320" as="sourcePoint" />
            <mxPoint x="-490" y="270" as="targetPoint" />
            <Array as="points">
              <mxPoint x="-460" y="260" />
              <mxPoint x="-460" y="180" />
            </Array>
          </mxGeometry>
        </mxCell>
        <mxCell id="AH8o_xnRMGMlBw7-ab-L-52" value="" style="endArrow=classic;html=1;rounded=0;fontFamily=Helvetica;fontSize=12;fontColor=default;exitX=1;exitY=0.5;exitDx=0;exitDy=0;entryX=0;entryY=0.5;entryDx=0;entryDy=0;" edge="1" parent="1" source="AH8o_xnRMGMlBw7-ab-L-16" target="AH8o_xnRMGMlBw7-ab-L-4">
          <mxGeometry width="50" height="50" relative="1" as="geometry">
            <mxPoint x="-420" y="320" as="sourcePoint" />
            <mxPoint x="-370" y="270" as="targetPoint" />
            <Array as="points">
              <mxPoint x="-340" y="180" />
              <mxPoint x="-340" y="260" />
            </Array>
          </mxGeometry>
        </mxCell>
        <mxCell id="AH8o_xnRMGMlBw7-ab-L-8" value="Thorium" style="rounded=0;whiteSpace=wrap;html=1;" vertex="1" parent="1">
          <mxGeometry x="-180" y="320" width="80" height="40" as="geometry" />
        </mxCell>
        <mxCell id="AH8o_xnRMGMlBw7-ab-L-56" value="" style="endArrow=none;html=1;rounded=0;fontFamily=Helvetica;fontSize=12;fontColor=default;entryX=0.5;entryY=1;entryDx=0;entryDy=0;exitX=0;exitY=0.5;exitDx=0;exitDy=0;" edge="1" parent="1" source="AH8o_xnRMGMlBw7-ab-L-34" target="AH8o_xnRMGMlBw7-ab-L-4">
          <mxGeometry width="50" height="50" relative="1" as="geometry">
            <mxPoint x="-460" y="300" as="sourcePoint" />
            <mxPoint x="-270" y="280" as="targetPoint" />
            <Array as="points">
              <mxPoint x="-370" y="420" />
              <mxPoint x="-370" y="300" />
              <mxPoint x="-280" y="300" />
            </Array>
          </mxGeometry>
        </mxCell>
        <mxCell id="AH8o_xnRMGMlBw7-ab-L-59" value="Power" style="ellipse;whiteSpace=wrap;html=1;rounded=0;strokeColor=default;align=center;verticalAlign=middle;fontFamily=Helvetica;fontSize=12;fontColor=default;fillColor=default;gradientColor=none;" vertex="1" parent="1">
          <mxGeometry x="-300" y="320" width="80" height="40" as="geometry" />
        </mxCell>
        <mxCell id="AH8o_xnRMGMlBw7-ab-L-60" value="" style="endArrow=classic;html=1;rounded=0;fontFamily=Helvetica;fontSize=12;fontColor=default;exitX=1;exitY=0.5;exitDx=0;exitDy=0;entryX=1;entryY=0.5;entryDx=0;entryDy=0;" edge="1" parent="1" source="AH8o_xnRMGMlBw7-ab-L-34" target="AH8o_xnRMGMlBw7-ab-L-59">
          <mxGeometry width="50" height="50" relative="1" as="geometry">
            <mxPoint x="-190" y="420" as="sourcePoint" />
            <mxPoint x="70" y="380" as="targetPoint" />
            <Array as="points">
              <mxPoint x="-200" y="420" />
              <mxPoint x="-200" y="340" />
            </Array>
          </mxGeometry>
        </mxCell>
        <mxCell id="AH8o_xnRMGMlBw7-ab-L-62" value="Hydrogen" style="shape=hexagon;perimeter=hexagonPerimeter2;whiteSpace=wrap;html=1;fixedSize=1;rounded=0;strokeColor=default;align=center;verticalAlign=middle;fontFamily=Helvetica;fontSize=12;fontColor=default;fillColor=default;gradientColor=none;size=20;" vertex="1" parent="1">
          <mxGeometry x="-560" y="80" width="80" height="40" as="geometry" />
        </mxCell>
        <mxCell id="AH8o_xnRMGMlBw7-ab-L-64" value="" style="endArrow=classic;html=1;rounded=0;fontFamily=Helvetica;fontSize=12;fontColor=default;exitX=1;exitY=0.5;exitDx=0;exitDy=0;entryX=0;entryY=0.5;entryDx=0;entryDy=0;" edge="1" parent="1" source="AH8o_xnRMGMlBw7-ab-L-20" target="AH8o_xnRMGMlBw7-ab-L-62">
          <mxGeometry width="50" height="50" relative="1" as="geometry">
            <mxPoint x="-590" y="180" as="sourcePoint" />
            <mxPoint x="-540" y="130" as="targetPoint" />
            <Array as="points">
              <mxPoint x="-580" y="180" />
              <mxPoint x="-580" y="100" />
            </Array>
          </mxGeometry>
        </mxCell>
        <mxCell id="AH8o_xnRMGMlBw7-ab-L-66" value="" style="endArrow=none;html=1;rounded=0;fontFamily=Helvetica;fontSize=12;fontColor=default;exitX=1;exitY=0.5;exitDx=0;exitDy=0;entryX=0.5;entryY=0;entryDx=0;entryDy=0;" edge="1" parent="1" source="AH8o_xnRMGMlBw7-ab-L-62" target="AH8o_xnRMGMlBw7-ab-L-16">
          <mxGeometry width="50" height="50" relative="1" as="geometry">
            <mxPoint x="-510" y="140" as="sourcePoint" />
            <mxPoint x="-460" y="90" as="targetPoint" />
            <Array as="points">
              <mxPoint x="-400" y="100" />
            </Array>
          </mxGeometry>
        </mxCell>
        <mxCell id="AH8o_xnRMGMlBw7-ab-L-67" value="(optional)" style="text;html=1;align=center;verticalAlign=middle;whiteSpace=wrap;rounded=0;fontFamily=Helvetica;fontSize=12;fontColor=default;" vertex="1" parent="1">
          <mxGeometry x="-430" y="85" width="60" height="30" as="geometry" />
        </mxCell>
        <mxCell id="AH8o_xnRMGMlBw7-ab-L-68" value="if hydrogen was added" style="text;html=1;align=center;verticalAlign=middle;whiteSpace=wrap;rounded=0;fontFamily=Helvetica;fontSize=12;fontColor=default;" vertex="1" parent="1">
          <mxGeometry x="-380" y="210" width="80" height="40" as="geometry" />
        </mxCell>
        <mxCell id="AH8o_xnRMGMlBw7-ab-L-71" value="" style="endArrow=classic;html=1;rounded=0;fontFamily=Helvetica;fontSize=12;fontColor=default;exitX=1;exitY=0.5;exitDx=0;exitDy=0;entryX=0;entryY=0.5;entryDx=0;entryDy=0;" edge="1" parent="1" source="AH8o_xnRMGMlBw7-ab-L-17" target="AH8o_xnRMGMlBw7-ab-L-7">
          <mxGeometry width="50" height="50" relative="1" as="geometry">
            <mxPoint x="-580" y="430" as="sourcePoint" />
            <mxPoint x="-530" y="380" as="targetPoint" />
          </mxGeometry>
        </mxCell>
        <mxCell id="AH8o_xnRMGMlBw7-ab-L-73" value="" style="endArrow=none;html=1;rounded=0;fontFamily=Helvetica;fontSize=12;fontColor=default;exitX=1;exitY=0.25;exitDx=0;exitDy=0;entryX=0;entryY=0.5;entryDx=0;entryDy=0;" edge="1" parent="1" source="AH8o_xnRMGMlBw7-ab-L-6" target="AH8o_xnRMGMlBw7-ab-L-34">
          <mxGeometry width="50" height="50" relative="1" as="geometry">
            <mxPoint x="-420" y="450" as="sourcePoint" />
            <mxPoint x="-370" y="400" as="targetPoint" />
            <Array as="points">
              <mxPoint x="-370" y="410" />
              <mxPoint x="-370" y="420" />
            </Array>
          </mxGeometry>
        </mxCell>
        <mxCell id="AH8o_xnRMGMlBw7-ab-L-74" value="" style="endArrow=classic;html=1;rounded=0;fontFamily=Helvetica;fontSize=12;fontColor=default;exitX=0.5;exitY=0;exitDx=0;exitDy=0;entryX=0;entryY=0.5;entryDx=0;entryDy=0;" edge="1" parent="1" source="AH8o_xnRMGMlBw7-ab-L-1" target="AH8o_xnRMGMlBw7-ab-L-75">
          <mxGeometry width="50" height="50" relative="1" as="geometry">
            <mxPoint x="-440" y="280" as="sourcePoint" />
            <mxPoint x="-440" y="480" as="targetPoint" />
            <Array as="points">
              <mxPoint x="-520" y="230" />
              <mxPoint x="-680" y="230" />
              <mxPoint x="-680" y="500" />
            </Array>
          </mxGeometry>
        </mxCell>
        <mxCell id="AH8o_xnRMGMlBw7-ab-L-75" value="Reinforced Concrete" style="rounded=0;whiteSpace=wrap;html=1;strokeColor=default;align=center;verticalAlign=middle;fontFamily=Helvetica;fontSize=12;fontColor=default;fillColor=default;gradientColor=none;" vertex="1" parent="1">
          <mxGeometry x="-320" y="480" width="80" height="40" as="geometry" />
        </mxCell>
        <mxCell id="AH8o_xnRMGMlBw7-ab-L-77" value="" style="endArrow=classic;html=1;rounded=0;fontFamily=Helvetica;fontSize=12;fontColor=default;exitX=0.5;exitY=1;exitDx=0;exitDy=0;entryX=0;entryY=0.5;entryDx=0;entryDy=0;" edge="1" parent="1" source="AH8o_xnRMGMlBw7-ab-L-6" target="AH8o_xnRMGMlBw7-ab-L-75">
          <mxGeometry width="50" height="50" relative="1" as="geometry">
            <mxPoint x="-570" y="520" as="sourcePoint" />
            <mxPoint x="-520" y="470" as="targetPoint" />
            <Array as="points">
              <mxPoint x="-520" y="460" />
              <mxPoint x="-680" y="460" />
              <mxPoint x="-680" y="500" />
            </Array>
          </mxGeometry>
        </mxCell>
        <mxCell id="AH8o_xnRMGMlBw7-ab-L-80" value="Water" style="shape=hexagon;perimeter=hexagonPerimeter2;whiteSpace=wrap;html=1;fixedSize=1;" vertex="1" parent="1">
          <mxGeometry x="-800" y="480" width="80" height="40" as="geometry" />
        </mxCell>
        <mxCell id="AH8o_xnRMGMlBw7-ab-L-82" value="" style="endArrow=none;html=1;rounded=0;fontFamily=Helvetica;fontSize=12;fontColor=default;exitX=1;exitY=0.5;exitDx=0;exitDy=0;entryX=0;entryY=0.5;entryDx=0;entryDy=0;" edge="1" parent="1" source="AH8o_xnRMGMlBw7-ab-L-80" target="AH8o_xnRMGMlBw7-ab-L-75">
          <mxGeometry width="50" height="50" relative="1" as="geometry">
            <mxPoint x="-640" y="560" as="sourcePoint" />
            <mxPoint x="-590" y="510" as="targetPoint" />
          </mxGeometry>
        </mxCell>
        <mxCell id="AH8o_xnRMGMlBw7-ab-L-83" value="Concrete Mixer" style="rounded=0;whiteSpace=wrap;html=1;strokeColor=default;align=center;verticalAlign=middle;fontFamily=Helvetica;fontSize=12;fontColor=default;fillColor=default;gradientColor=none;" vertex="1" parent="1">
          <mxGeometry x="-620" y="485" width="80" height="30" as="geometry" />
        </mxCell>
        <mxCell id="AH8o_xnRMGMlBw7-ab-L-86" value="Hydrogen" style="shape=hexagon;perimeter=hexagonPerimeter2;whiteSpace=wrap;html=1;fixedSize=1;rounded=0;strokeColor=default;align=center;verticalAlign=middle;fontFamily=Helvetica;fontSize=12;fontColor=default;fillColor=default;gradientColor=none;size=20;" vertex="1" parent="1">
          <mxGeometry x="-620" y="560" width="80" height="40" as="geometry" />
        </mxCell>
        <mxCell id="AH8o_xnRMGMlBw7-ab-L-88" value="(optional to increase production)" style="text;html=1;align=center;verticalAlign=middle;whiteSpace=wrap;rounded=0;fontFamily=Helvetica;fontSize=12;fontColor=default;" vertex="1" parent="1">
          <mxGeometry x="-650" y="525" width="140" height="25" as="geometry" />
        </mxCell>
        <mxCell id="AH8o_xnRMGMlBw7-ab-L-91" value="" style="endArrow=none;html=1;rounded=0;fontFamily=Helvetica;fontSize=12;fontColor=default;exitX=0.5;exitY=0;exitDx=0;exitDy=0;entryX=0.5;entryY=1;entryDx=0;entryDy=0;" edge="1" parent="1" source="AH8o_xnRMGMlBw7-ab-L-86" target="AH8o_xnRMGMlBw7-ab-L-83">
          <mxGeometry width="50" height="50" relative="1" as="geometry">
            <mxPoint x="-510" y="570" as="sourcePoint" />
            <mxPoint x="-460" y="520" as="targetPoint" />
          </mxGeometry>
        </mxCell>
        <mxCell id="AH8o_xnRMGMlBw7-ab-L-92" value="" style="endArrow=classic;html=1;rounded=0;fontFamily=Helvetica;fontSize=12;fontColor=default;exitX=0.5;exitY=0;exitDx=0;exitDy=0;entryX=1;entryY=1;entryDx=0;entryDy=0;" edge="1" parent="1" source="AH8o_xnRMGMlBw7-ab-L-6" target="AH8o_xnRMGMlBw7-ab-L-17">
          <mxGeometry width="50" height="50" relative="1" as="geometry">
            <mxPoint x="-590" y="400" as="sourcePoint" />
            <mxPoint x="-540" y="350" as="targetPoint" />
            <Array as="points">
              <mxPoint x="-520" y="380" />
              <mxPoint x="-600" y="380" />
            </Array>
          </mxGeometry>
        </mxCell>
      </root>
    </mxGraphModel>
  </diagram>
</mxfile>
